<svg width="48" height="48" viewBox="0 0 48 48" fill="none" xmlns="http://www.w3.org/2000/svg">
<path d="M33 41V37.3333C33 35.3884 32.2098 33.5232 30.8033 32.1479C29.3968 30.7726 27.4891 30 25.5 30H10.5C8.51088 30 6.60322 30.7726 5.1967 32.1479C3.79018 33.5232 3 35.3884 3 37.3333V41" stroke="white" stroke-width="4" stroke-linecap="round" stroke-linejoin="round"/>
<path d="M18.5 22C22.6421 22 26 18.6421 26 14.5C26 10.3579 22.6421 7 18.5 7C14.3579 7 11 10.3579 11 14.5C11 18.6421 14.3579 22 18.5 22Z" stroke="white" stroke-width="4" stroke-linecap="round" stroke-linejoin="round"/>
<path d="M45 41V37.2521C44.9987 35.5913 44.4087 33.9779 43.3227 32.6653C42.2368 31.3527 40.7163 30.4152 39 30" stroke="#242424" stroke-width="4" stroke-linecap="round" stroke-linejoin="round"/>
<path d="M31 7C32.7163 7.42639 34.2376 8.39491 35.324 9.75286C36.4103 11.1108 37 12.781 37 14.5C37 16.219 36.4103 17.8892 35.324 19.2471C34.2376 20.6051 32.7163 21.5736 31 22" stroke="#242424" stroke-width="4" stroke-linecap="round" stroke-linejoin="round"/>
</svg>
